#!OML:ASF F:\VICON\USERDATA\INSTALL\rory3\rory3.ASF
:FULLY-SPECIFIED
:DEGREES
139
root 1.74611 17.977 -3.51847 -6.83692 -2.2615 4.6748
lowerback 17.0176 0.184413 -4.49015
upperback 0.515697 -0.525582 1.15587
thorax -8.96358 -0.0333039 3.9379
lowerneck -10.7815 -0.24773 -1.08659
upperneck 23.6054 0.626984 -3.14798
head 9.19471 -0.144386 -0.825547
rclavicle 1.56046e-014 0
rhumerus -34.6335 -8.36143 -78.1758
rradius 30.9122
rwrist 0.43451
rhand -13.6453 12.2744
rfingers 7.12502
rthumb 12.4711 -17.3335
lclavicle 1.56046e-014 0
lhumerus -37.6046 3.66298 85.3595
lradius 39.9547
lwrist 6.87752
lhand -13.963 49.4573
lfingers 7.12502
lthumb 12.1648 79.0836
rfemur -23.8437 -2.5808 17.4628
rtibia 74.948
rfoot -5.1752 -7.86829
rtoes 12.1695
lfemur -3.89001 -5.86519 -30.2748
ltibia 25.4385
lfoot -9.61163 -1.25729
ltoes -2.95122
140
root 1.74312 17.9655 -3.3884 -6.80527 -2.1466 4.73809
lowerback 17.2942 0.0958024 -4.56915
upperback 0.429116 -0.671506 1.16972
thorax -9.1985 -0.0906526 4.04074
lowerneck -10.6071 -0.231546 -1.1094
upperneck 23.6541 0.650922 -3.15028
head 9.17912 -0.135076 -0.819778
rclavicle -7.52897e-015 1.59028e-015
rhumerus -34.6889 -8.47257 -78.0726
rradius 30.8749
rwrist 0.385151
rhand -13.531 11.1487
rfingers 7.12502
rthumb 12.5813 -18.4524
lclavicle -7.52897e-015 1.59028e-015
lhumerus -37.9769 3.53003 85.3467
lradius 40.9534
lwrist 6.9721
lhand -14.346 49.3964
lfingers 7.12502
lthumb 11.7955 79.0442
rfemur -24.8436 -2.63857 17.4206
rtibia 73.9934
rfoot -6.70089 -7.08179
rtoes 9.39006
lfemur -3.65452 -5.92115 -30.4454
ltibia 25.8736
lfoot -10.1542 -1.12119
ltoes -3.54406
141
root 1.73726 17.9487 -3.2524 -6.8061 -2.02691 4.83516
lowerback 17.5334 0.0206147 -4.72348
upperback 0.337937 -0.812319 1.19838
thorax -9.41685 -0.141559 4.20236
lowerneck -10.6114 -0.162847 -0.885451
upperneck 23.8148 0.779893 -3.45579
head 9.23933 -0.0903003 -0.950017
rclavicle -2.3556e-014 3.97569e-015
rhumerus -34.9671 -8.3698 -78.0399
rradius 31.094
rwrist 0.417223
rhand -13.8377 10.1131
rfingers 7.12502
rthumb 12.2856 -19.506
lclavicle -2.3556e-014 3.97569e-015
lhumerus -37.8668 3.50693 85.3046
lradius 41.0776
lwrist 6.89859
lhand -13.7613 50.0346
lfingers 7.12502
lthumb 12.3593 79.6493
rfemur -25.6913 -2.63534 17.3609
rtibia 72.8717
rfoot -7.75846 -6.54182
rtoes 7.81702
lfemur -3.25679 -5.99604 -30.6566
ltibia 26.1133
lfoot -10.6937 -0.987893
ltoes -5.03482
142
root 1.72988 17.9328 -3.10945 -6.86341 -1.93957 5.08536
lowerback 17.5403 -0.037446 -5.06266
upperback 0.39591 -0.957208 1.19722
thorax -9.33643 -0.19924 4.43055
lowerneck -10.6523 -0.156939 -0.746786
upperneck 24.0472 0.845862 -3.7773
head 9.33151 -0.0859977 -1.07954
rclavicle -9.69075e-015 -5.56597e-015
rhumerus -35.1023 -8.25544 -78.0737
rradius 31.3753
rwrist 0.33725
rhand -14.1835 9.91636
rfingers 7.12502
rthumb 11.9521 -19.7224
lclavicle -9.69075e-015 -5.56597e-015
lhumerus -37.5799 3.32419 85.3237
lradius 41.1815
lwrist 7.2359
lhand -13.9259 50.5455
lfingers 7.12502
lthumb 12.2006 80.1696
rfemur -26.4297 -2.60906 17.1028
rtibia 71.5249
rfoot -8.39878 -6.5025
rtoes 7.27411
lfemur -2.79726 -5.95352 -31.0361
ltibia 26.3749
lfoot -11.2957 -0.86896
ltoes -5.93983
